<mxfile host="app.diagrams.net" modified="2024-07-09T20:13:46.495Z" agent="Mozilla/5.0 (Windows NT 10.0; Win64; x64) AppleWebKit/537.36 (KHTML, like Gecko) Chrome/124.0.0.0 YaBrowser/24.6.0.0 Safari/537.36" etag="bbq32tUyHWh9KDhhmbJM" version="24.6.4" type="device">
  <diagram name="Page-1" id="e7e014a7-5840-1c2e-5031-d8a46d1fe8dd">
    <mxGraphModel dx="1002" dy="567" grid="1" gridSize="10" guides="1" tooltips="1" connect="1" arrows="1" fold="1" page="1" pageScale="1" pageWidth="1169" pageHeight="826" background="none" math="0" shadow="0">
      <root>
        <mxCell id="0" />
        <mxCell id="1" parent="0" />
        <mxCell id="2" value="Клиент" style="swimlane;whiteSpace=wrap;rounded=0;" parent="1" vertex="1">
          <mxGeometry x="160" y="130" width="280" height="1140" as="geometry" />
        </mxCell>
        <mxCell id="orcu1h9Cc3-LXS-dzeMS-68" value="" style="edgeStyle=orthogonalEdgeStyle;rounded=0;orthogonalLoop=1;jettySize=auto;html=1;exitX=0.511;exitY=0.825;exitDx=0;exitDy=0;exitPerimeter=0;entryX=0.5;entryY=0;entryDx=0;entryDy=0;" edge="1" parent="2" source="orcu1h9Cc3-LXS-dzeMS-42" target="orcu1h9Cc3-LXS-dzeMS-53">
          <mxGeometry relative="1" as="geometry" />
        </mxCell>
        <mxCell id="orcu1h9Cc3-LXS-dzeMS-42" value="" style="ellipse;html=1;shape=endState;fillColor=#000000;strokeColor=none;" vertex="1" parent="2">
          <mxGeometry x="125" y="62" width="30" height="30" as="geometry" />
        </mxCell>
        <mxCell id="orcu1h9Cc3-LXS-dzeMS-53" value="Создать заказ" style="html=1;align=center;verticalAlign=top;rounded=1;absoluteArcSize=1;arcSize=10;dashed=0;whiteSpace=wrap;" vertex="1" parent="2">
          <mxGeometry x="70" y="122" width="140" height="28" as="geometry" />
        </mxCell>
        <mxCell id="orcu1h9Cc3-LXS-dzeMS-76" value="Заказать заново?" style="rhombus;whiteSpace=wrap;html=1;" vertex="1" parent="2">
          <mxGeometry x="70" y="172" width="140" height="78" as="geometry" />
        </mxCell>
        <mxCell id="orcu1h9Cc3-LXS-dzeMS-79" value="" style="edgeStyle=orthogonalEdgeStyle;rounded=0;orthogonalLoop=1;jettySize=auto;html=1;exitX=0.5;exitY=0;exitDx=0;exitDy=0;entryX=0.5;entryY=1;entryDx=0;entryDy=0;" edge="1" parent="2" source="orcu1h9Cc3-LXS-dzeMS-76" target="orcu1h9Cc3-LXS-dzeMS-53">
          <mxGeometry relative="1" as="geometry">
            <mxPoint x="150" y="97" as="sourcePoint" />
            <mxPoint x="150" y="132" as="targetPoint" />
          </mxGeometry>
        </mxCell>
        <mxCell id="orcu1h9Cc3-LXS-dzeMS-80" value="да" style="edgeLabel;html=1;align=center;verticalAlign=middle;resizable=0;points=[];" vertex="1" connectable="0" parent="orcu1h9Cc3-LXS-dzeMS-79">
          <mxGeometry x="-0.1818" y="-1" relative="1" as="geometry">
            <mxPoint as="offset" />
          </mxGeometry>
        </mxCell>
        <mxCell id="orcu1h9Cc3-LXS-dzeMS-92" value="Оплатить заказ" style="html=1;align=center;verticalAlign=top;rounded=1;absoluteArcSize=1;arcSize=10;dashed=0;whiteSpace=wrap;" vertex="1" parent="2">
          <mxGeometry x="95.5" y="602" width="140" height="28" as="geometry" />
        </mxCell>
        <mxCell id="orcu1h9Cc3-LXS-dzeMS-98" value="Заказ&amp;nbsp;&lt;div&gt;[получен]&lt;/div&gt;" style="html=1;whiteSpace=wrap;" vertex="1" parent="2">
          <mxGeometry x="155" y="762" width="110" height="26" as="geometry" />
        </mxCell>
        <mxCell id="orcu1h9Cc3-LXS-dzeMS-99" value="" style="endArrow=block;endFill=1;html=1;edgeStyle=orthogonalEdgeStyle;align=left;verticalAlign=top;rounded=0;exitX=0.5;exitY=1;exitDx=0;exitDy=0;entryX=0.5;entryY=0;entryDx=0;entryDy=0;" edge="1" parent="2" source="orcu1h9Cc3-LXS-dzeMS-92" target="orcu1h9Cc3-LXS-dzeMS-100">
          <mxGeometry x="-1" relative="1" as="geometry">
            <mxPoint x="165.31" y="642" as="sourcePoint" />
            <mxPoint x="165.31" y="692" as="targetPoint" />
          </mxGeometry>
        </mxCell>
        <mxCell id="orcu1h9Cc3-LXS-dzeMS-100" value="Получить заказ" style="html=1;align=center;verticalAlign=top;rounded=1;absoluteArcSize=1;arcSize=10;dashed=0;whiteSpace=wrap;" vertex="1" parent="2">
          <mxGeometry x="95.5" y="698" width="140" height="28" as="geometry" />
        </mxCell>
        <mxCell id="orcu1h9Cc3-LXS-dzeMS-102" value="" style="html=1;verticalAlign=bottom;endArrow=open;dashed=1;endSize=8;curved=0;rounded=0;exitX=0.25;exitY=1;exitDx=0;exitDy=0;entryX=0;entryY=0.75;entryDx=0;entryDy=0;" edge="1" parent="2" source="orcu1h9Cc3-LXS-dzeMS-100" target="orcu1h9Cc3-LXS-dzeMS-98">
          <mxGeometry relative="1" as="geometry">
            <mxPoint x="127" y="738.5" as="sourcePoint" />
            <mxPoint x="125" y="811.5" as="targetPoint" />
          </mxGeometry>
        </mxCell>
        <mxCell id="orcu1h9Cc3-LXS-dzeMS-117" value="Заказ&amp;nbsp;&lt;div&gt;[выполнен]&lt;/div&gt;" style="html=1;whiteSpace=wrap;" vertex="1" parent="2">
          <mxGeometry x="150" y="870" width="110" height="26" as="geometry" />
        </mxCell>
        <mxCell id="3" value="Администратор" style="swimlane;whiteSpace=wrap" parent="1" vertex="1">
          <mxGeometry x="440" y="128" width="280" height="1142" as="geometry" />
        </mxCell>
        <mxCell id="orcu1h9Cc3-LXS-dzeMS-57" value="Заказ&amp;nbsp;&lt;div&gt;[получен]&lt;/div&gt;" style="html=1;whiteSpace=wrap;" vertex="1" parent="3">
          <mxGeometry x="65" y="32" width="110" height="26" as="geometry" />
        </mxCell>
        <mxCell id="orcu1h9Cc3-LXS-dzeMS-62" value="" style="html=1;verticalAlign=bottom;endArrow=open;dashed=1;endSize=8;curved=0;rounded=0;exitX=0.564;exitY=0.997;exitDx=0;exitDy=0;exitPerimeter=0;entryX=0.467;entryY=0.003;entryDx=0;entryDy=0;entryPerimeter=0;" edge="1" parent="3" source="orcu1h9Cc3-LXS-dzeMS-57" target="orcu1h9Cc3-LXS-dzeMS-83">
          <mxGeometry relative="1" as="geometry">
            <mxPoint x="125" y="112" as="sourcePoint" />
            <mxPoint x="125" y="92" as="targetPoint" />
          </mxGeometry>
        </mxCell>
        <mxCell id="orcu1h9Cc3-LXS-dzeMS-69" value="Все позиции в заказе могут быть выполнены?" style="rhombus;whiteSpace=wrap;html=1;" vertex="1" parent="3">
          <mxGeometry x="65" y="222" width="140" height="78" as="geometry" />
        </mxCell>
        <mxCell id="orcu1h9Cc3-LXS-dzeMS-83" value="Проверить наличие позиций" style="html=1;align=center;verticalAlign=top;rounded=1;absoluteArcSize=1;arcSize=10;dashed=0;whiteSpace=wrap;" vertex="1" parent="3">
          <mxGeometry x="65" y="122" width="140" height="40" as="geometry" />
        </mxCell>
        <mxCell id="orcu1h9Cc3-LXS-dzeMS-84" value="" style="edgeStyle=orthogonalEdgeStyle;rounded=0;orthogonalLoop=1;jettySize=auto;html=1;exitX=0.5;exitY=1;exitDx=0;exitDy=0;entryX=0.508;entryY=0.031;entryDx=0;entryDy=0;entryPerimeter=0;" edge="1" parent="3" source="orcu1h9Cc3-LXS-dzeMS-83" target="orcu1h9Cc3-LXS-dzeMS-69">
          <mxGeometry relative="1" as="geometry">
            <mxPoint x="133.2499999999999" y="162.00000000000006" as="sourcePoint" />
            <mxPoint x="136.75" y="219.56" as="targetPoint" />
            <Array as="points">
              <mxPoint x="135" y="220" />
              <mxPoint x="136" y="220" />
            </Array>
          </mxGeometry>
        </mxCell>
        <mxCell id="orcu1h9Cc3-LXS-dzeMS-85" value="Оформить заказ" style="html=1;align=center;verticalAlign=top;rounded=1;absoluteArcSize=1;arcSize=10;dashed=0;whiteSpace=wrap;" vertex="1" parent="3">
          <mxGeometry x="70" y="342" width="140" height="28" as="geometry" />
        </mxCell>
        <mxCell id="orcu1h9Cc3-LXS-dzeMS-86" value="" style="edgeStyle=orthogonalEdgeStyle;rounded=0;orthogonalLoop=1;jettySize=auto;html=1;exitX=0.5;exitY=1;exitDx=0;exitDy=0;entryX=0.5;entryY=0;entryDx=0;entryDy=0;" edge="1" parent="3" source="orcu1h9Cc3-LXS-dzeMS-69" target="orcu1h9Cc3-LXS-dzeMS-85">
          <mxGeometry relative="1" as="geometry">
            <mxPoint x="140" y="300" as="sourcePoint" />
            <mxPoint x="140" y="335" as="targetPoint" />
            <Array as="points">
              <mxPoint x="166" y="300" />
              <mxPoint x="166" y="318" />
              <mxPoint x="140" y="318" />
            </Array>
          </mxGeometry>
        </mxCell>
        <mxCell id="orcu1h9Cc3-LXS-dzeMS-96" value="да" style="edgeLabel;html=1;align=center;verticalAlign=middle;resizable=0;points=[];" vertex="1" connectable="0" parent="orcu1h9Cc3-LXS-dzeMS-86">
          <mxGeometry x="-0.144" y="-1" relative="1" as="geometry">
            <mxPoint as="offset" />
          </mxGeometry>
        </mxCell>
        <mxCell id="orcu1h9Cc3-LXS-dzeMS-88" value="Заказ&amp;nbsp;&lt;div&gt;[приготовлен]&lt;/div&gt;" style="html=1;whiteSpace=wrap;" vertex="1" parent="3">
          <mxGeometry x="84.5" y="442" width="110" height="26" as="geometry" />
        </mxCell>
        <mxCell id="orcu1h9Cc3-LXS-dzeMS-89" value="" style="shape=partialRectangle;html=1;top=1;align=left;fillColor=#000000;" vertex="1" parent="3">
          <mxGeometry x="-210" y="542" width="680" height="8" as="geometry" />
        </mxCell>
        <mxCell id="orcu1h9Cc3-LXS-dzeMS-91" value="" style="endArrow=block;endFill=1;html=1;edgeStyle=orthogonalEdgeStyle;align=left;verticalAlign=top;rounded=0;exitX=0.483;exitY=0.935;exitDx=0;exitDy=0;exitPerimeter=0;entryX=0.379;entryY=0.001;entryDx=0;entryDy=0;entryPerimeter=0;" edge="1" parent="3" source="orcu1h9Cc3-LXS-dzeMS-89" target="orcu1h9Cc3-LXS-dzeMS-93">
          <mxGeometry x="-1" relative="1" as="geometry">
            <mxPoint x="114.51000000000009" y="550.002" as="sourcePoint" />
            <mxPoint x="118.40999999999995" y="603.13" as="targetPoint" />
            <Array as="points">
              <mxPoint x="118" y="551" />
              <mxPoint x="118" y="551" />
              <mxPoint x="118" y="577" />
            </Array>
          </mxGeometry>
        </mxCell>
        <mxCell id="orcu1h9Cc3-LXS-dzeMS-93" value="Передать клиенту заказ" style="html=1;align=center;verticalAlign=top;rounded=1;absoluteArcSize=1;arcSize=10;dashed=0;whiteSpace=wrap;" vertex="1" parent="3">
          <mxGeometry x="65" y="602" width="140" height="28" as="geometry" />
        </mxCell>
        <mxCell id="orcu1h9Cc3-LXS-dzeMS-97" value="" style="html=1;verticalAlign=bottom;endArrow=open;dashed=1;endSize=8;curved=0;rounded=0;exitX=0.631;exitY=1.084;exitDx=0;exitDy=0;exitPerimeter=0;entryX=0.532;entryY=0.081;entryDx=0;entryDy=0;entryPerimeter=0;" edge="1" parent="3" source="orcu1h9Cc3-LXS-dzeMS-88" target="orcu1h9Cc3-LXS-dzeMS-89">
          <mxGeometry relative="1" as="geometry">
            <mxPoint x="355" y="422" as="sourcePoint" />
            <mxPoint x="205" y="472" as="targetPoint" />
          </mxGeometry>
        </mxCell>
        <mxCell id="orcu1h9Cc3-LXS-dzeMS-103" value="" style="shape=partialRectangle;html=1;top=1;align=left;fillColor=#000000;" vertex="1" parent="3">
          <mxGeometry x="-200" y="822" width="680" height="8" as="geometry" />
        </mxCell>
        <mxCell id="orcu1h9Cc3-LXS-dzeMS-104" value="" style="endArrow=block;endFill=1;html=1;edgeStyle=orthogonalEdgeStyle;align=left;verticalAlign=top;rounded=0;exitX=0.5;exitY=1;exitDx=0;exitDy=0;entryX=0.492;entryY=0.163;entryDx=0;entryDy=0;entryPerimeter=0;" edge="1" parent="3" source="orcu1h9Cc3-LXS-dzeMS-93" target="orcu1h9Cc3-LXS-dzeMS-103">
          <mxGeometry x="-1" relative="1" as="geometry">
            <mxPoint x="134.62" y="642" as="sourcePoint" />
            <mxPoint x="134.62" y="765" as="targetPoint" />
            <Array as="points" />
          </mxGeometry>
        </mxCell>
        <mxCell id="orcu1h9Cc3-LXS-dzeMS-111" value="" style="endArrow=block;endFill=1;html=1;edgeStyle=orthogonalEdgeStyle;align=left;verticalAlign=top;rounded=0;exitX=0.499;exitY=1.009;exitDx=0;exitDy=0;exitPerimeter=0;entryX=0.457;entryY=0;entryDx=0;entryDy=0;entryPerimeter=0;" edge="1" parent="3" source="orcu1h9Cc3-LXS-dzeMS-103" target="orcu1h9Cc3-LXS-dzeMS-115">
          <mxGeometry x="-1" relative="1" as="geometry">
            <mxPoint x="139" y="842" as="sourcePoint" />
            <mxPoint x="139.99" y="902" as="targetPoint" />
            <Array as="points">
              <mxPoint x="139" y="844" />
              <mxPoint x="139" y="844" />
            </Array>
          </mxGeometry>
        </mxCell>
        <mxCell id="orcu1h9Cc3-LXS-dzeMS-115" value="Отметить выполненный заказ" style="html=1;align=center;verticalAlign=top;rounded=1;absoluteArcSize=1;arcSize=10;dashed=0;whiteSpace=wrap;" vertex="1" parent="3">
          <mxGeometry x="75" y="900" width="140" height="40" as="geometry" />
        </mxCell>
        <mxCell id="orcu1h9Cc3-LXS-dzeMS-119" value="" style="endArrow=block;endFill=1;html=1;edgeStyle=orthogonalEdgeStyle;align=left;verticalAlign=top;rounded=0;exitX=0.5;exitY=1;exitDx=0;exitDy=0;entryX=0.5;entryY=0;entryDx=0;entryDy=0;" edge="1" parent="3" source="orcu1h9Cc3-LXS-dzeMS-115" target="orcu1h9Cc3-LXS-dzeMS-120">
          <mxGeometry x="-1" relative="1" as="geometry">
            <mxPoint x="144.67999999999995" y="952" as="sourcePoint" />
            <mxPoint x="145" y="982" as="targetPoint" />
            <Array as="points" />
          </mxGeometry>
        </mxCell>
        <mxCell id="orcu1h9Cc3-LXS-dzeMS-120" value="" style="ellipse;html=1;shape=endState;fillColor=#000000;strokeColor=#000000;" vertex="1" parent="3">
          <mxGeometry x="130" y="992" width="30" height="30" as="geometry" />
        </mxCell>
        <mxCell id="4" value="Пекарь" style="swimlane;whiteSpace=wrap" parent="3" vertex="1">
          <mxGeometry x="280" width="279.5" height="1140" as="geometry" />
        </mxCell>
        <mxCell id="orcu1h9Cc3-LXS-dzeMS-65" value="Заказ&amp;nbsp;&lt;div&gt;[оформлен]&lt;/div&gt;" style="html=1;whiteSpace=wrap;" vertex="1" parent="4">
          <mxGeometry x="85" y="282" width="110" height="26" as="geometry" />
        </mxCell>
        <mxCell id="orcu1h9Cc3-LXS-dzeMS-66" value="Приготовить заказ" style="html=1;align=center;verticalAlign=top;rounded=1;absoluteArcSize=1;arcSize=10;dashed=0;whiteSpace=wrap;" vertex="1" parent="4">
          <mxGeometry x="70" y="392" width="140" height="28" as="geometry" />
        </mxCell>
        <mxCell id="orcu1h9Cc3-LXS-dzeMS-67" value="" style="html=1;verticalAlign=bottom;endArrow=open;dashed=1;endSize=8;curved=0;rounded=0;entryX=0.5;entryY=0;entryDx=0;entryDy=0;exitX=0.5;exitY=1;exitDx=0;exitDy=0;" edge="1" parent="4" source="orcu1h9Cc3-LXS-dzeMS-65" target="orcu1h9Cc3-LXS-dzeMS-66">
          <mxGeometry relative="1" as="geometry">
            <mxPoint x="145.5" y="112" as="sourcePoint" />
            <mxPoint x="139.76" y="126" as="targetPoint" />
          </mxGeometry>
        </mxCell>
        <mxCell id="orcu1h9Cc3-LXS-dzeMS-106" value="Передать заказ на выдачу" style="html=1;align=center;verticalAlign=top;rounded=1;absoluteArcSize=1;arcSize=10;dashed=0;whiteSpace=wrap;" vertex="1" parent="4">
          <mxGeometry x="70" y="460" width="140" height="40" as="geometry" />
        </mxCell>
        <mxCell id="orcu1h9Cc3-LXS-dzeMS-107" value="" style="endArrow=block;endFill=1;html=1;edgeStyle=orthogonalEdgeStyle;align=left;verticalAlign=top;rounded=0;exitX=0.497;exitY=0.977;exitDx=0;exitDy=0;exitPerimeter=0;entryX=0.5;entryY=0;entryDx=0;entryDy=0;" edge="1" parent="4" source="orcu1h9Cc3-LXS-dzeMS-66" target="orcu1h9Cc3-LXS-dzeMS-106">
          <mxGeometry x="-1" relative="1" as="geometry">
            <mxPoint x="139.63" y="420" as="sourcePoint" />
            <mxPoint x="139.63" y="473" as="targetPoint" />
            <Array as="points" />
          </mxGeometry>
        </mxCell>
        <mxCell id="orcu1h9Cc3-LXS-dzeMS-110" value="" style="endArrow=block;endFill=1;html=1;edgeStyle=orthogonalEdgeStyle;align=left;verticalAlign=top;rounded=0;exitX=0.497;exitY=0.977;exitDx=0;exitDy=0;exitPerimeter=0;entryX=0.921;entryY=-0.124;entryDx=0;entryDy=0;entryPerimeter=0;" edge="1" parent="4" target="orcu1h9Cc3-LXS-dzeMS-89">
          <mxGeometry x="-1" relative="1" as="geometry">
            <mxPoint x="139.80999999999995" y="500" as="sourcePoint" />
            <mxPoint x="160" y="522" as="targetPoint" />
            <Array as="points">
              <mxPoint x="141" y="500" />
              <mxPoint x="141" y="512" />
              <mxPoint x="141" y="512" />
            </Array>
          </mxGeometry>
        </mxCell>
        <mxCell id="orcu1h9Cc3-LXS-dzeMS-63" value="" style="html=1;verticalAlign=bottom;endArrow=open;dashed=1;endSize=8;curved=0;rounded=0;entryX=0;entryY=0.5;entryDx=0;entryDy=0;exitX=1;exitY=0.25;exitDx=0;exitDy=0;" edge="1" parent="3" source="orcu1h9Cc3-LXS-dzeMS-85" target="orcu1h9Cc3-LXS-dzeMS-65">
          <mxGeometry relative="1" as="geometry">
            <mxPoint x="240" y="142" as="sourcePoint" />
            <mxPoint x="315" y="102" as="targetPoint" />
          </mxGeometry>
        </mxCell>
        <mxCell id="orcu1h9Cc3-LXS-dzeMS-87" value="" style="html=1;verticalAlign=bottom;endArrow=open;dashed=1;endSize=8;curved=0;rounded=0;exitX=0;exitY=0.5;exitDx=0;exitDy=0;entryX=1;entryY=0.75;entryDx=0;entryDy=0;" edge="1" parent="3" source="orcu1h9Cc3-LXS-dzeMS-106" target="orcu1h9Cc3-LXS-dzeMS-88">
          <mxGeometry relative="1" as="geometry">
            <mxPoint x="345.5" y="412" as="sourcePoint" />
            <mxPoint x="220" y="452" as="targetPoint" />
          </mxGeometry>
        </mxCell>
        <mxCell id="orcu1h9Cc3-LXS-dzeMS-55" value="" style="html=1;verticalAlign=bottom;endArrow=open;dashed=1;endSize=8;curved=0;rounded=0;exitX=1;exitY=0.25;exitDx=0;exitDy=0;entryX=0;entryY=0.5;entryDx=0;entryDy=0;" edge="1" parent="1" source="orcu1h9Cc3-LXS-dzeMS-53" target="orcu1h9Cc3-LXS-dzeMS-57">
          <mxGeometry relative="1" as="geometry">
            <mxPoint x="454.5" y="90" as="sourcePoint" />
            <mxPoint x="490" y="220" as="targetPoint" />
          </mxGeometry>
        </mxCell>
        <mxCell id="orcu1h9Cc3-LXS-dzeMS-60" value="" style="endArrow=block;endFill=1;html=1;edgeStyle=orthogonalEdgeStyle;align=left;verticalAlign=top;rounded=0;exitX=1;exitY=0.5;exitDx=0;exitDy=0;entryX=-0.002;entryY=0.359;entryDx=0;entryDy=0;entryPerimeter=0;" edge="1" parent="1" source="orcu1h9Cc3-LXS-dzeMS-53" target="orcu1h9Cc3-LXS-dzeMS-83">
          <mxGeometry x="-1" relative="1" as="geometry">
            <mxPoint x="350" y="220" as="sourcePoint" />
            <mxPoint x="510" y="270" as="targetPoint" />
          </mxGeometry>
        </mxCell>
        <mxCell id="orcu1h9Cc3-LXS-dzeMS-77" value="" style="endArrow=block;endFill=1;html=1;edgeStyle=orthogonalEdgeStyle;align=left;verticalAlign=top;rounded=0;exitX=0;exitY=0.5;exitDx=0;exitDy=0;entryX=1;entryY=0.5;entryDx=0;entryDy=0;" edge="1" parent="1" source="orcu1h9Cc3-LXS-dzeMS-69" target="orcu1h9Cc3-LXS-dzeMS-76">
          <mxGeometry x="-1" relative="1" as="geometry">
            <mxPoint x="385" y="274" as="sourcePoint" />
            <mxPoint x="510" y="274" as="targetPoint" />
          </mxGeometry>
        </mxCell>
        <mxCell id="orcu1h9Cc3-LXS-dzeMS-78" value="нет" style="edgeLabel;html=1;align=center;verticalAlign=middle;resizable=0;points=[];" vertex="1" connectable="0" parent="orcu1h9Cc3-LXS-dzeMS-77">
          <mxGeometry x="-0.3776" y="2" relative="1" as="geometry">
            <mxPoint as="offset" />
          </mxGeometry>
        </mxCell>
        <mxCell id="orcu1h9Cc3-LXS-dzeMS-90" value="" style="endArrow=block;endFill=1;html=1;edgeStyle=orthogonalEdgeStyle;align=left;verticalAlign=top;rounded=0;exitX=0.142;exitY=1.114;exitDx=0;exitDy=0;exitPerimeter=0;entryX=0.514;entryY=-0.036;entryDx=0;entryDy=0;entryPerimeter=0;" edge="1" parent="1" source="orcu1h9Cc3-LXS-dzeMS-89" target="orcu1h9Cc3-LXS-dzeMS-92">
          <mxGeometry x="-1" relative="1" as="geometry">
            <mxPoint x="289.5" y="700" as="sourcePoint" />
            <mxPoint x="332" y="710" as="targetPoint" />
          </mxGeometry>
        </mxCell>
        <mxCell id="orcu1h9Cc3-LXS-dzeMS-101" value="" style="html=1;verticalAlign=bottom;endArrow=open;dashed=1;endSize=8;curved=0;rounded=0;exitX=0;exitY=0.75;exitDx=0;exitDy=0;entryX=0.75;entryY=0;entryDx=0;entryDy=0;" edge="1" parent="1" source="orcu1h9Cc3-LXS-dzeMS-93" target="orcu1h9Cc3-LXS-dzeMS-98">
          <mxGeometry relative="1" as="geometry">
            <mxPoint x="545.5" y="826" as="sourcePoint" />
            <mxPoint x="395.5" y="875" as="targetPoint" />
          </mxGeometry>
        </mxCell>
        <mxCell id="orcu1h9Cc3-LXS-dzeMS-105" value="" style="html=1;verticalAlign=bottom;endArrow=open;dashed=1;endSize=8;curved=0;rounded=0;exitX=0.455;exitY=1.046;exitDx=0;exitDy=0;entryX=0.177;entryY=0.75;entryDx=0;entryDy=0;entryPerimeter=0;exitPerimeter=0;" edge="1" parent="1" source="orcu1h9Cc3-LXS-dzeMS-98" target="orcu1h9Cc3-LXS-dzeMS-103">
          <mxGeometry relative="1" as="geometry">
            <mxPoint x="301" y="866" as="sourcePoint" />
            <mxPoint x="325" y="922" as="targetPoint" />
          </mxGeometry>
        </mxCell>
        <mxCell id="orcu1h9Cc3-LXS-dzeMS-116" value="" style="html=1;verticalAlign=bottom;endArrow=open;dashed=1;endSize=8;curved=0;rounded=0;exitX=0.169;exitY=0.905;exitDx=0;exitDy=0;entryX=0.448;entryY=-0.014;entryDx=0;entryDy=0;entryPerimeter=0;exitPerimeter=0;" edge="1" parent="1" source="orcu1h9Cc3-LXS-dzeMS-103" target="orcu1h9Cc3-LXS-dzeMS-117">
          <mxGeometry relative="1" as="geometry">
            <mxPoint x="360" y="960" as="sourcePoint" />
            <mxPoint x="360" y="997" as="targetPoint" />
          </mxGeometry>
        </mxCell>
        <mxCell id="orcu1h9Cc3-LXS-dzeMS-118" value="" style="html=1;verticalAlign=bottom;endArrow=open;dashed=1;endSize=8;curved=0;rounded=0;exitX=0.5;exitY=1;exitDx=0;exitDy=0;entryX=0;entryY=0.5;entryDx=0;entryDy=0;" edge="1" parent="1" source="orcu1h9Cc3-LXS-dzeMS-117" target="orcu1h9Cc3-LXS-dzeMS-115">
          <mxGeometry relative="1" as="geometry">
            <mxPoint x="370.5" y="1040" as="sourcePoint" />
            <mxPoint x="395.5" y="1096" as="targetPoint" />
          </mxGeometry>
        </mxCell>
        <mxCell id="orcu1h9Cc3-LXS-dzeMS-121" value="" style="endArrow=block;endFill=1;html=1;edgeStyle=orthogonalEdgeStyle;align=left;verticalAlign=top;rounded=0;exitX=0;exitY=0.5;exitDx=0;exitDy=0;entryX=0.003;entryY=0.409;entryDx=0;entryDy=0;entryPerimeter=0;" edge="1" parent="1" source="orcu1h9Cc3-LXS-dzeMS-76" target="orcu1h9Cc3-LXS-dzeMS-120">
          <mxGeometry x="-1" relative="1" as="geometry">
            <mxPoint x="200" y="370" as="sourcePoint" />
            <mxPoint x="510" y="1140" as="targetPoint" />
            <Array as="points">
              <mxPoint x="220" y="341" />
              <mxPoint x="220" y="801" />
              <mxPoint x="200" y="801" />
              <mxPoint x="200" y="1220" />
              <mxPoint x="565" y="1220" />
              <mxPoint x="565" y="1132" />
            </Array>
          </mxGeometry>
        </mxCell>
        <mxCell id="orcu1h9Cc3-LXS-dzeMS-122" value="нет" style="edgeLabel;html=1;align=center;verticalAlign=middle;resizable=0;points=[];" vertex="1" connectable="0" parent="orcu1h9Cc3-LXS-dzeMS-121">
          <mxGeometry x="-0.7527" y="-3" relative="1" as="geometry">
            <mxPoint as="offset" />
          </mxGeometry>
        </mxCell>
      </root>
    </mxGraphModel>
  </diagram>
</mxfile>
